<svg width="64" height="64" viewBox="0 0 64 64" fill="none" xmlns="http://www.w3.org/2000/svg">
  <!-- Fundo -->
  <circle cx="32" cy="32" r="32" fill="#C23B32"></circle>

  <!-- Panela -->
  <path d="M18 28h28l-3 14a6 6 0 0 1-6 5H27a6 6 0 0 1-6-5l-3-14Z" fill="#F7F1E3"></path>

  <!-- Tampa -->
  <rect x="26" y="22" width="12" height="4" rx="2" fill="#F7F1E3"></rect>
  <rect x="30" y="18" width="4" height="4" rx="2" fill="#F7F1E3"></rect>

  <!-- Vapor -->
  <path d="M24 14c-2 2-2 4 0 6" stroke="#F7F1E3" stroke-width="2" stroke-linecap="round"></path>
  <path d="M32 14c-2 2-2 4 0 6" stroke="#F7F1E3" stroke-width="2" stroke-linecap="round"></path>
  <path d="M40 14c-2 2-2 4 0 6" stroke="#F7F1E3" stroke-width="2" stroke-linecap="round"></path>
</svg>
